<svg width="18" height="17" viewBox="0 0 18 17" fill="none" xmlns="http://www.w3.org/2000/svg">
<path d="M2.5 17C1.95 17 1.47917 16.8042 1.0875 16.4125C0.695833 16.0208 0.5 15.55 0.5 15C0.5 14.45 0.695833 13.9792 1.0875 13.5875C1.47917 13.1958 1.95 13 2.5 13C3.05 13 3.52083 13.1958 3.9125 13.5875C4.30417 13.9792 4.5 14.45 4.5 15C4.5 15.55 4.30417 16.0208 3.9125 16.4125C3.52083 16.8042 3.05 17 2.5 17ZM14.5 17C14.5 15.05 14.1333 13.2292 13.4 11.5375C12.6667 9.84583 11.6667 8.36667 10.4 7.1C9.13333 5.83333 7.65417 4.83333 5.9625 4.1C4.27083 3.36667 2.45 3 0.5 3V0C2.86667 0 5.075 0.441667 7.125 1.325C9.175 2.20833 10.975 3.425 12.525 4.975C14.075 6.525 15.2917 8.325 16.175 10.375C17.0583 12.425 17.5 14.6333 17.5 17H14.5ZM8.5 17C8.5 15.8833 8.29167 14.8458 7.875 13.8875C7.45833 12.9292 6.88333 12.0833 6.15 11.35C5.41667 10.6167 4.57083 10.0417 3.6125 9.625C2.65417 9.20833 1.61667 9 0.5 9V6C2.03333 6 3.4625 6.2875 4.7875 6.8625C6.1125 7.4375 7.275 8.225 8.275 9.225C9.275 10.225 10.0625 11.3875 10.6375 12.7125C11.2125 14.0375 11.5 15.4667 11.5 17H8.5Z" fill="black" fill-opacity="0.4"/>
</svg>
