<svg width="20" height="20" viewBox="0 0 20 20" fill="none" xmlns="http://www.w3.org/2000/svg">
<g id="Filled icon SM">
<path id="Vector" d="M3.33329 18.3333C2.87496 18.3333 2.4826 18.1701 2.15621 17.8438C1.82982 17.5174 1.66663 17.125 1.66663 16.6667V3.33333C1.66663 2.875 1.82982 2.48264 2.15621 2.15625C2.4826 1.82986 2.87496 1.66667 3.33329 1.66667H10.8333L9.16663 3.33333H3.33329V16.6667H12.5V14.1667H14.1666V16.6667C14.1666 17.125 14.0034 17.5174 13.677 17.8438C13.3507 18.1701 12.9583 18.3333 12.5 18.3333H3.33329ZM4.99996 15V13.3333H10.8333V15H4.99996ZM4.99996 12.5V10.8333H9.16663V12.5H4.99996ZM12.5 12.5L9.16663 9.16667H6.66663V5H9.16663L12.5 1.66667V12.5ZM14.1666 9.95833V4.20833C14.6666 4.5 15.0694 4.89583 15.375 5.39583C15.6805 5.89583 15.8333 6.45833 15.8333 7.08333C15.8333 7.70833 15.6805 8.27083 15.375 8.77083C15.0694 9.27083 14.6666 9.66667 14.1666 9.95833ZM14.1666 13.5417V11.7917C15.1388 11.4444 15.9375 10.8438 16.5625 9.98958C17.1875 9.13542 17.5 8.16667 17.5 7.08333C17.5 6 17.1875 5.03125 16.5625 4.17708C15.9375 3.32292 15.1388 2.72222 14.1666 2.375V0.625C15.6111 1 16.8055 1.78125 17.75 2.96875C18.6944 4.15625 19.1666 5.52778 19.1666 7.08333C19.1666 8.63889 18.6944 10.0104 17.75 11.1979C16.8055 12.3854 15.6111 13.1667 14.1666 13.5417Z" fill="white"/>
</g>
</svg>
