<svg width="32" height="32" viewBox="0 0 32 32" fill="none" xmlns="http://www.w3.org/2000/svg">
<g id="Location pin" clip-path="url(#clip0_307_1122)">
<path id="Vector" d="M16 2.6665C10.84 2.6665 6.66663 6.83984 6.66663 11.9998C6.66663 14.3198 7.33329 16.4932 8.54663 18.4532C9.81329 20.5065 11.48 22.2665 12.76 24.3198C13.3866 25.3198 13.84 26.2532 14.32 27.3332C14.6666 28.0665 14.9466 29.3332 16 29.3332C17.0533 29.3332 17.3333 28.0665 17.6666 27.3332C18.16 26.2532 18.6 25.3198 19.2266 24.3198C20.5066 22.2798 22.1733 20.5198 23.44 18.4532C24.6666 16.4932 25.3333 14.3198 25.3333 11.9998C25.3333 6.83984 21.16 2.6665 16 2.6665ZM16 15.6665C14.16 15.6665 12.6666 14.1732 12.6666 12.3332C12.6666 10.4932 14.16 8.99984 16 8.99984C17.84 8.99984 19.3333 10.4932 19.3333 12.3332C19.3333 14.1732 17.84 15.6665 16 15.6665Z" fill="#424242"/>
</g>
<defs>
<clipPath id="clip0_307_1122">
<rect width="32" height="32" fill="white"/>
</clipPath>
</defs>
</svg>
