<svg width="32" height="32" viewBox="0 0 32 32" fill="none" xmlns="http://www.w3.org/2000/svg">
<g id="Phone in talk" clip-path="url(#clip0_307_1127)">
<path id="Vector" d="M26.6667 20.6667C25 20.6667 23.4 20.4 21.9067 19.9067C21.44 19.76 20.92 19.8667 20.5467 20.2267L17.6133 23.16C13.84 21.24 10.7467 18.16 8.82667 14.3733L11.76 11.4267C12.1333 11.08 12.24 10.56 12.0933 10.0933C11.6 8.6 11.3333 7 11.3333 5.33333C11.3333 4.6 10.7333 4 10 4H5.33333C4.6 4 4 4.6 4 5.33333C4 17.8533 14.1467 28 26.6667 28C27.4 28 28 27.4 28 26.6667V22C28 21.2667 27.4 20.6667 26.6667 20.6667ZM25.3333 16H28C28 9.37333 22.6267 4 16 4V6.66667C21.16 6.66667 25.3333 10.84 25.3333 16ZM20 16H22.6667C22.6667 12.32 19.68 9.33333 16 9.33333V12C18.2133 12 20 13.7867 20 16Z" fill="#424242"/>
</g>
<defs>
<clipPath id="clip0_307_1127">
<rect width="32" height="32" fill="white"/>
</clipPath>
</defs>
</svg>
